<?xml version="1.0" standalone="no"?>
<!DOCTYPE svg PUBLIC "-//W3C//DTD SVG 20010904//EN"
 "http://www.w3.org/TR/2001/REC-SVG-20010904/DTD/svg10.dtd">
<svg version="1.0" xmlns="http://www.w3.org/2000/svg"
 width="512.000000pt" height="512.000000pt" viewBox="0 0 512.000000 512.000000"
 preserveAspectRatio="xMidYMid meet">

<g transform="translate(0.000000,512.000000) scale(0.100000,-0.100000)"
fill="#000000" stroke="none">
<path d="M0 2560 l0 -2560 2560 0 2560 0 0 2560 0 2560 -2560 0 -2560 0 0
-2560z m4223 1746 c69 -28 107 -104 92 -183 -6 -34 -179 -211 -1633 -1666
-960 -962 -1640 -1635 -1659 -1643 -74 -32 -152 -7 -200 65 -25 37 -30 91 -13
138 6 15 115 132 243 260 127 128 229 234 227 236 -3 3 -72 50 -155 105 -266
178 -536 408 -753 642 -69 74 -143 159 -166 189 -37 49 -41 60 -41 110 0 70
21 101 199 293 378 410 843 753 1277 941 633 275 1210 274 1847 -4 l53 -23
267 266 c147 147 278 272 292 277 36 14 86 13 123 -3z m-51 -940 c104 -37 590
-493 747 -701 60 -79 54 -146 -21 -238 -377 -458 -948 -900 -1428 -1105 -337
-144 -675 -212 -985 -199 -331 15 -420 55 -420 187 0 66 18 98 76 139 37 25
64 25 249 1 353 -45 787 59 1190 285 281 158 546 362 825 637 l190 187 -155
156 c-85 86 -204 197 -265 248 -179 150 -202 175 -210 229 -12 82 39 159 120
179 42 10 46 10 87 -5z"/>
<path d="M2370 3670 c-265 -33 -571 -138 -835 -287 -281 -159 -544 -363 -820
-635 l-190 -188 190 -188 c253 -250 527 -466 749 -592 l58 -33 185 185 185
185 -35 64 c-209 387 -64 873 323 1082 236 128 538 126 768 -4 l55 -31 143
143 c79 79 144 146 144 149 0 20 -292 108 -445 135 -108 19 -371 27 -475 15z"/>
<path d="M2406 3010 c-209 -74 -339 -268 -323 -480 6 -72 32 -170 45 -170 4 0
149 142 322 315 l314 314 -39 18 c-28 11 -74 18 -150 20 -92 3 -120 0 -169
-17z"/>
</g>
</svg>
