<?xml version="1.0" standalone="no"?>
<!DOCTYPE svg PUBLIC "-//W3C//DTD SVG 20010904//EN"
 "http://www.w3.org/TR/2001/REC-SVG-20010904/DTD/svg10.dtd">
<svg version="1.0" xmlns="http://www.w3.org/2000/svg"
 width="512.000000pt" height="512.000000pt" viewBox="0 0 512.000000 512.000000"
 preserveAspectRatio="xMidYMid meet">

<g transform="translate(0.000000,512.000000) scale(0.100000,-0.100000)"
fill="#000000" stroke="none">
<path d="M0 2560 l0 -2560 2560 0 2560 0 0 2560 0 2560 -2560 0 -2560 0 0
-2560z m2953 1426 c328 -53 579 -135 869 -282 400 -204 769 -534 1023 -915
142 -212 143 -228 44 -387 -113 -182 -217 -311 -388 -483 -434 -433 -932 -686
-1548 -785 -156 -25 -518 -30 -692 -10 -614 72 -1170 334 -1605 756 -166 161
-265 280 -387 463 -99 149 -117 191 -105 248 14 72 207 349 363 521 439 485
1048 799 1713 883 152 19 573 13 713 -9z"/>
<path d="M2291 3679 c-418 -51 -806 -201 -1145 -441 -220 -157 -453 -396 -601
-621 l-38 -58 59 -85 c322 -470 815 -815 1384 -968 214 -57 324 -70 600 -71
268 0 335 6 539 51 585 130 1127 495 1465 988 l59 85 -46 69 c-310 467 -826
834 -1379 981 -217 58 -331 73 -588 76 -129 2 -268 -1 -309 -6z m504 -148
c287 -71 526 -263 659 -528 191 -381 116 -841 -188 -1149 -126 -127 -309 -228
-491 -270 -118 -28 -330 -26 -449 4 -172 43 -346 142 -471 267 -336 335 -390
853 -130 1251 149 229 387 387 662 439 104 20 301 13 408 -14z"/>
<path d="M2415 3224 c-387 -85 -621 -491 -501 -869 34 -107 87 -194 167 -274
79 -79 166 -132 274 -168 69 -23 96 -27 205 -27 109 0 136 4 205 27 108 36
195 89 274 168 79 79 132 166 168 274 23 69 27 96 27 205 0 109 -4 136 -27
205 -92 278 -332 459 -622 471 -67 2 -123 -1 -170 -12z"/>
</g>
</svg>
